<?xml version="1.0" encoding="UTF-8" standalone="no"?>
<!--?xml version="1.0" encoding="utf-8"?-->

<!-- Generator: Adobe Illustrator 15.1.0, SVG Export Plug-In . SVG Version: 6.00 Build 0)  -->

<svg
   xmlns:dc="http://purl.org/dc/elements/1.1/"
   xmlns:cc="http://creativecommons.org/ns#"
   xmlns:rdf="http://www.w3.org/1999/02/22-rdf-syntax-ns#"
   xmlns:svg="http://www.w3.org/2000/svg"
   xmlns="http://www.w3.org/2000/svg"
   xmlns:sodipodi="http://sodipodi.sourceforge.net/DTD/sodipodi-0.dtd"
   xmlns:inkscape="http://www.inkscape.org/namespaces/inkscape"
   version="1.1"
   id="_x32_"
   x="0px"
   y="0px"
   width="512px"
   height="512px"
   viewBox="0 0 512 512"
   style="width: 256px; height: 256px; opacity: 1;"
   xml:space="preserve"
   sodipodi:docname="gear.svg"
   inkscape:version="0.92.4 (5da689c313, 2019-01-14)"><metadata
   id="metadata15"><rdf:RDF><cc:Work
       rdf:about=""><dc:format>image/svg+xml</dc:format><dc:type
         rdf:resource="http://purl.org/dc/dcmitype/StillImage" /></cc:Work></rdf:RDF></metadata><defs
   id="defs13">
	
	
</defs><sodipodi:namedview
   pagecolor="#ffffff"
   bordercolor="#666666"
   borderopacity="1"
   objecttolerance="10"
   gridtolerance="10"
   guidetolerance="10"
   inkscape:pageopacity="0"
   inkscape:pageshadow="2"
   inkscape:window-width="1920"
   inkscape:window-height="1017"
   id="namedview11"
   showgrid="false"
   inkscape:zoom="0.4609375"
   inkscape:cx="-468.61016"
   inkscape:cy="82.440678"
   inkscape:window-x="-8"
   inkscape:window-y="-8"
   inkscape:window-maximized="1"
   inkscape:current-layer="_x32_" />
<style
   type="text/css"
   id="style2">

	.st0{fill:#4B4B4B;}

</style>
<path
   inkscape:connector-curvature="0"
   id="path4"
   style="fill:#88aa00"
   d="m 459.219,255.994 c 0,-11.313 -0.922,-22.641 -2.797,-33.813 16.641,-7.141 32.969,-15.375 48.859,-24.656 -3.25,-13.922 -7.688,-27.563 -13.219,-40.719 -18.328,1.813 -36.375,4.734 -54.031,8.734 -5.047,-10.141 -10.938,-19.844 -17.609,-28.984 -6.656,-9.172 -14.078,-17.766 -22.172,-25.688 9.25,-15.578 17.609,-31.828 25,-48.688 -10.781,-9.313 -22.344,-17.734 -34.531,-25.141 -13.766,12.234 -26.672,25.188 -38.641,38.781 -10.016,-5.25 -20.5,-9.656 -31.266,-13.141 -10.766,-3.5 -21.828,-6.078 -33.031,-7.734 -1.688,-18.031 -4.516,-36.094 -8.469,-54.078 -14.203,-1.156 -28.422,-1.156 -42.625,0 -3.953,17.984 -6.781,36.047 -8.469,54.078 -11.203,1.656 -22.266,4.234 -33.031,7.734 -10.766,3.484 -21.25,7.891 -31.266,13.141 C 149.952,62.226 137.046,49.273 123.296,37.039 111.093,44.445 99.53,52.867 88.749,62.18 c 7.406,16.859 15.75,33.109 25,48.688 -8.078,7.922 -15.516,16.516 -22.172,25.688 -6.656,9.141 -12.563,18.844 -17.609,28.984 -17.656,-4 -35.703,-6.922 -54.031,-8.734 -5.531,13.156 -9.969,26.797 -13.219,40.719 15.906,9.281 32.219,17.516 48.859,24.656 -1.875,11.172 -2.797,22.5 -2.797,33.813 0,11.328 0.922,22.641 2.797,33.813 -16.641,7.156 -32.953,15.375 -48.859,24.672 3.25,13.906 7.688,27.547 13.219,40.719 18.328,-1.828 36.375,-4.75 54.031,-8.75 5.047,10.141 10.953,19.844 17.609,29 6.656,9.156 14.094,17.766 22.172,25.672 -9.25,15.578 -17.594,31.844 -25,48.688 10.781,9.313 22.344,17.734 34.547,25.141 13.75,-12.219 26.656,-25.172 38.625,-38.781 10.016,5.25 20.5,9.656 31.266,13.156 10.766,3.5 21.828,6.078 33.031,7.734 1.688,18.031 4.516,36.094 8.469,54.063 14.203,1.172 28.422,1.172 42.625,0 3.953,-17.969 6.781,-36.031 8.469,-54.063 11.203,-1.656 22.266,-4.234 33.031,-7.734 10.765,-3.5 21.25,-7.906 31.266,-13.156 11.969,13.609 24.875,26.563 38.641,38.781 12.188,-7.406 23.75,-15.828 34.531,-25.141 -7.391,-16.844 -15.75,-33.109 -25,-48.688 8.094,-7.906 15.516,-16.516 22.172,-25.672 6.672,-9.156 12.563,-18.859 17.609,-29 17.656,4 35.703,6.922 54.031,8.75 5.531,-13.172 9.969,-26.813 13.219,-40.719 -15.891,-9.297 -32.219,-17.516 -48.859,-24.672 1.875,-11.172 2.797,-22.485 2.797,-33.813 z M 346.125,380.135 c -13,9.453 -27.469,16.844 -42.703,21.797 -15.234,4.938 -31.234,7.453 -47.422,7.453 -16.172,0 -32.188,-2.516 -47.422,-7.453 -15.234,-4.953 -29.703,-12.344 -42.703,-21.797 -13.016,-9.469 -24.547,-21 -34,-34.016 -9.469,-13 -16.859,-27.453 -21.797,-42.703 -4.953,-15.234 -7.469,-31.234 -7.453,-47.422 -0.016,-16.172 2.5,-32.172 7.453,-47.422 4.938,-15.234 12.328,-29.703 21.797,-42.703 9.453,-13 20.984,-24.531 34,-34 13,-9.469 27.453,-16.859 42.703,-21.797 15.234,-4.953 31.25,-7.453 47.422,-7.453 16.188,0 32.188,2.5 47.422,7.453 15.25,4.938 29.703,12.328 42.703,21.797 13.016,9.469 24.547,21 34,34 9.469,13 16.859,27.469 21.797,42.703 4.953,15.25 7.469,31.25 7.453,47.422 0.016,16.188 -2.5,32.188 -7.453,47.422 -4.938,15.25 -12.328,29.703 -21.797,42.703 -9.453,13.016 -20.984,24.547 -34,34.016 z"
   class="st0"
   inkscape:export-xdpi="300"
   inkscape:export-ydpi="300" /><path
   inkscape:connector-curvature="0"
   id="path6"
   style="fill:#ffffff"
   d="m 308.969,168.854 c -5.984,-4 -9.891,-5.141 -9.891,-5.141 -1.766,-0.922 -3.922,-0.766 -5.531,0.406 -1.625,1.188 -2.438,3.156 -2.109,5.156 l 1.469,8.875 8.469,50.328 c 1.609,9.703 -8.5,15.531 -16.125,20.719 l -24.563,16.266 c -2.563,1.688 -5.719,2.188 -8.672,1.359 l -27.234,-7.594 c -9.172,-2.188 -20.359,-4.703 -21.969,-14.406 l -8.672,-51.516 -1.391,-8.438 c -0.328,-1.969 -1.734,-3.594 -3.625,-4.188 -1.906,-0.594 -3.969,-0.063 -5.359,1.359 0,0 -3.891,2.766 -8.531,8.75 -11.672,15.078 -19.125,33.672 -20.484,54.141 -1.891,28.844 8.719,55.641 27.219,75.031 16.438,17.219 32.313,22.656 35.125,54.063 0.172,0.063 0.328,0.125 0.484,0.172 12.359,4.016 25.313,6.047 38.422,6.047 13.109,0 26.063,-2.031 38.422,-6.047 2.5,-0.813 5,-1.719 7.453,-2.688 2.594,-28.453 14.172,-40.844 31.031,-59.984 12.438,-14.141 18.688,-33.344 20.016,-53.531 2.421,-36.702 -15.423,-70.061 -43.954,-89.139 z"
   class="st0"
   inkscape:export-xdpi="300"
   inkscape:export-ydpi="300" />
</svg>