<?xml version="1.0" standalone="no"?>
<!DOCTYPE svg PUBLIC "-//W3C//DTD SVG 20010904//EN"
 "http://www.w3.org/TR/2001/REC-SVG-20010904/DTD/svg10.dtd">
<svg version="1.0" xmlns="http://www.w3.org/2000/svg"
 width="347.000000pt" height="347.000000pt" viewBox="0 0 347.000000 347.000000"
 preserveAspectRatio="xMidYMid meet">
<metadata>
Created by potrace 1.14, written by Peter Selinger 2001-2017
</metadata>
<g transform="translate(0.000000,347.000000) scale(0.100000,-0.100000)"
fill="#000000" stroke="none">
<path d="M889 2956 c-2 -2 -24 -6 -49 -9 -183 -19 -409 -133 -554 -281 -89
-90 -158 -192 -206 -305 -33 -76 -43 -110 -66 -211 -13 -59 -13 -258 1 -335
57 -317 263 -585 556 -723 114 -53 264 -89 387 -91 32 -1 23 -11 -215 -246
l-248 -245 1045 1 c1017 0 1048 0 1140 21 136 29 290 95 375 160 46 35 144
121 160 139 183 220 258 421 250 678 -2 69 -6 137 -8 151 -24 138 -108 319
-202 437 -171 217 -467 367 -733 372 l-43 1 248 245 248 245 -1041 0 c-573 0
-1043 -2 -1045 -4z m1341 -731 c-227 -226 -243 -245 -215 -245 75 0 201 -49
273 -107 178 -140 237 -375 146 -580 -26 -61 -80 -135 -121 -166 -15 -12 -34
-27 -42 -35 -23 -23 -105 -60 -166 -76 -50 -13 -144 -15 -585 -16 l-525 0 242
242 c134 133 241 243 240 244 -1 1 -20 5 -42 7 -140 17 -261 88 -355 209 -35
46 -69 130 -81 205 -29 174 40 339 194 468 26 21 83 49 146 71 65 22 73 22
601 23 l535 1 -245 -245z"/>
</g>
</svg>
